<?xml version="1.0" encoding="UTF-8"?>
<svg enable-background="new 0 0 865.581 1702.393" version="1.1" viewBox="0 0 865.581 1702.393" xmlns="http://www.w3.org/2000/svg">
 <path d="m712.98 724.12l13.827 5.365 10.237-8.25c-1.293-2.77-2.59-5.537-3.892-8.303-0.069 0.059-0.13 0.123-0.201 0.18-4.019 3.24-9.719 2.852-13.291-0.71l-5.099 6.893-0.755 1.088-1.284-0.165-9.195-0.988-17.654 14.229c1.888 2.22 3.754 4.46 5.611 6.708l20.44-16.474 1.256 0.427z"/>
 <path d="m715.14 744.89l11.344 1.272 16.108-12.983c-1.18-2.551-2.362-5.101-3.547-7.65l-11.388 9.178-1.285-0.404-13.827-5.365-18.34 14.782c2.834 3.445 5.838 6.811 8.392 10.465l11.593-9.344 0.95 0.049z"/>
 <path d="m576.32 1050.7v-52.423l0.026-1.03 15.119-15.119c-0.725-2.747-1.473-5.487-2.243-8.222l-20.09 20.09 0.027 53.823c2.381 0.977 4.774 1.935 7.161 2.881z"/>
 <path d="m707.7 1458.7l4.308 3.034c-2.945-10.367-6.037-20.698-8.439-31.207-1.102-4.732-2.179-9.469-3.247-14.208l7.378 42.381z"/>
 <path d="m710.23 762.09l8.903 0.983 27.151-21.883c-0.575-1.248-1.153-2.495-1.728-3.742l-16.702 13.462-0.864-0.119-11.402-1.225-10.556 8.508c0.559 1.006 1.078 2.037 1.536 3.105 0.368 0.813 0.552 1.65 0.625 2.495l2.12-1.709 0.917 0.125z"/>
 <path d="m692.2 855.79l3.052-3.052-1.497-5.61-2.248 1.812c-0.056 2.3 0.236 4.584 0.693 6.85z"/>
 <path d="m762.6 776.59c-2.17-4.678-4.331-9.361-6.488-14.045l-28.084 22.635-5.666 14.645-0.214 0.509-24.305 19.589c-0.971 4.621-2.141 9.2-3.279 13.786l0.549 0.549 0.132 0.608 1.146 4.271 43.475-35.04c-1.47-0.622-2.893-1.565-3.967-2.898-3.473-4.309-2.743-10.603 1.566-14.076s10.585-2.825 14.058 1.484 2.796 10.609-1.513 14.082c-1.059 0.854-2.263 1.444-3.489 1.804-0.134 0.183-0.295 0.344-0.477 0.48l-48.36 38.977 2.371 8.831 0.343 1.242-6.963 6.963c0.295 1.137 0.59 2.269 0.861 3.397 0.603 3.154 4.167 3.922 6.875 4.254 2.699 0.376 6.316-0.052 7.233-3.118 4.962-11.705 8.001-24.144 13.181-35.762 0.847-1.686 1.66-3.861 3.774-4.219 5.46-1.363 10.718 1.651 16.186 1.38 1.17-0.21 2.393 0.472 2.594 1.738 1.73 5.337 2.656 10.928 3.11 16.527 0.016 0.249 0.018 0.497 0.026 0.745l8.645-6.968 6.68-62.37z"/>
 <path d="m592.79 987.22l-11.924 11.924v53.32c0.688 0.267 1.373 0.529 2.061 0.793v-51.418l-0.079-0.978 10.686-10.686c-0.242-0.986-0.495-1.97-0.744-2.955z"/>
 <path d="m718.24 797.63l5.713-14.587 0.196-0.59 29.998-24.178c-0.467-1.015-0.935-2.03-1.402-3.046-1.942 1.548-3.981 3.177-6.133 4.896-13.646 10.898-31.129 25.043-48.614 39.261 0.207 4.572 1.367 9.153 1.024 13.733l19.218-15.489z"/>
 <path d="m662.36 675.12l0.416-1.151 38.817-31.286c-0.793-1.799-1.613-3.585-2.459-5.361l-58.034 46.774c3.583 3.895 7.173 7.785 10.764 11.674l3.563-2.872 6.933-17.778z"/>
 <path d="m676.79 597.14c-1.652-2.68-3.319-5.352-5.012-8.006-1.812-2.853-3.705-5.655-5.653-8.418l-68.239 54.999c1.754 2.107 3.521 4.202 5.308 6.28l38.427-30.972c0.263-0.212 0.541-0.404 0.833-0.574 0.327-2.452 1.483-4.795 3.565-6.473 4.309-3.473 10.609-2.796 14.082 1.513s2.773 10.58-1.536 14.052c-2.381 1.919-5.377 2.495-8.157 1.967-0.067 0.056-0.135 0.111-0.204 0.164l-37.981 30.612c2.193 2.457 4.399 4.902 6.609 7.344l56.103-45.218 1.855-17.27z"/>
 <path d="m714.96 676.84c-3.26-8.453-6.321-16.996-9.69-25.405l-34.848 28.087-6.903 17.754-0.393 1.18-5.042 4.064c2.323 2.526 4.638 5.06 6.948 7.599l18.513-14.921 4.498-11.688 0.278-0.608 5.615-4.526c-3.214-4.299-2.569-10.407 1.642-13.802 4.309-3.473 10.655-2.738 14.129 1.571 3.473 4.309 2.796 10.609-1.513 14.082-3.141 2.531-7.341 2.836-10.728 1.159l-5.44 4.385-4.474 11.717-0.243 0.532-19.206 15.478c1.799 1.989 3.584 3.99 5.368 5.992l44.466-35.838c-1.083-2.226-2.092-4.488-2.977-6.812z"/>
 <path d="m580.6 945.76c-0.135-0.406-0.273-0.812-0.409-1.218l-30.584 30.584v64.26c1.981 0.888 3.96 1.802 5.945 2.669v-53.162l-0.026-0.872 29.24-29.24c-1.348-4.353-2.738-8.693-4.166-13.021z"/>
 <path d="m586.28 963.76l-26.16 26.16-0.026 54.088c1.485 0.635 3.004 1.279 4.492 1.902v-52.845l-0.079-0.925 23.279-23.279c-0.496-1.703-0.995-3.403-1.506-5.101z"/>
 <path d="m566.49 907.98l0.053-1.004 0.133-0.133c-1.22-3.113-2.473-6.212-3.754-9.3l-8.005 8.005v32.923l0.026 1.031-27.797 27.797v61.512c3.042 1.505 6.112 2.959 9.169 4.413v-59.662l-0.027-0.978 30.254-30.254-0.052-34.35z"/>
 <path d="m702.86 714.62l8.78 0.89 5.418-7.39c-1.105-3.764 0.091-7.944 3.341-10.563 1.205-0.971 2.56-1.604 3.962-1.936-1.456-2.596-2.918-5.187-4.312-7.812l-43.546 35.097c2.079 2.355 4.136 4.729 6.187 7.108l19.254-15.518 0.916 0.124z"/>
 <path d="m684.58 610.15l-0.757 7.122-0.232 1.915-58.597 47.228c1.658 1.826 3.316 3.652 4.971 5.48 0.629 0.697 1.265 1.388 1.896 2.083l60.918-49.098c-2.65-4.957-5.382-9.868-8.199-14.73z"/>
 <path d="m603.98 1050.6c-0.454 0.505-0.914 1.004-1.368 1.51l1.658 1.167c-0.097-0.892-0.19-1.785-0.29-2.677z"/>
 <path d="m503.64 580.52c0.028-1.725 0.068-3.45 0.128-5.176 0.065-1.902 0.148-3.803 0.241-5.703l-13.637-1.477c1.097 3.776 2.269 7.524 3.437 11.292l9.831 1.064z"/>
 <path d="m601.32 1045.4c0.608-0.673 1.214-1.349 1.825-2.019-0.557-4.489-1.16-8.972-1.825-13.446v15.465z"/>
 <path d="m504.18 606.2c-0.324-6.263-0.533-12.53-0.569-18.803l-7.577-0.807c2.095 6.49 4.291 12.985 6.601 19.444l1.545 0.166z"/>
 <path d="m601.32 1060c0.412 0.144 0.82 0.286 1.23 0.429l-1.23-0.866v0.437z"/>
 <path d="m545.04 974.14v-0.899l33.536-33.536c-2.404-7.113-4.887-14.201-7.482-21.247v24.872l0.026 0.872-30.228 30.228v60.93c1.387 0.647 2.758 1.345 4.148 1.982v-63.202z"/>
 <path d="m605.74 1070.9c-0.041-1.391-0.098-2.781-0.184-4.171-3.797-1.283-7.587-2.608-11.371-3.966l11.555 8.137z"/>
 <path d="m542.99 852.68c-0.276-0.582-0.555-1.162-0.834-1.742l-3e-3 0.905 0.837 0.837z"/>
 <path d="m767.24 879.8l25.657-20.679c-0.369-1.361-0.748-2.719-1.137-4.075l-28.905 23.297c-0.269 0.413-0.544 0.823-0.826 1.23l-2.524 23.495c2.151-1.961 3.807-4.551 6.009-6.466l1.7-15.821 0.026-0.981z"/>
 <path d="m774.34 846.58l4.234-39.287c-1.679-1.881-3.422-3.728-4.416-6.066-1.36-2.854-2.706-5.714-4.053-8.573l-5.295 49.131-0.18 1.921-23.481 18.925c-0.498 0.577-1.017 1.136-1.565 1.665-1.227 1.114-2.598 2.009-4.015 2.833l-10.294 8.297c-0.407 1.53-0.45 3.181-0.261 4.716 0.21 1.668 1.459 3.564 3.363 3.381 0.919-0.099 1.813-0.293 2.694-0.539l0.18-1.674 43.089-34.73z"/>
 <path d="m774.02 887.74l12.139-9.783c1.997-3.433 3.86-6.95 5.678-10.464 0.495-1.06 1.48-2.026 1.899-3.128l-22.122 17.83-1.332 12.45c1.035-0.15 2.073-0.311 3.039-0.631l0.581-5.409 0.118-0.865z"/>
 <path d="m504.4 562.79c0.233-3.632 0.505-7.262 0.809-10.888l-19.929-2.141c0.977 3.776 2.015 7.535 3.064 11.305l16.056 1.724z"/>
 <path d="m755.64 888.33c-2.158 3.311-5.049 6.385-6.071 10.273 0.506 2.629 2.523 5.263 5.113 6.159l1.903-17.794c-0.321 0.451-0.638 0.904-0.945 1.362z"/>
 <path d="m534.52 461.99l1.477 0.105 33.89 3.641 4.568-3.681c-0.271-3.198 0.946-6.474 3.64-8.644 0.629-0.507 1.303-0.914 2-1.245-0.536-3.316-0.968-6.646-1.348-9.984l-19.119 15.41-1.419-0.152-26.983-2.872-56.675 45.679c0.517 2.939 1.048 5.844 1.608 8.783l58.361-47.04z"/>
 <path d="m505.82 545.01c0.334-3.572 0.689-7.141 1.059-10.708 0.994-9.949 2.455-19.853 3.307-29.809l-29.971 24.156c1.043 4.677 2.155 9.319 3.307 13.989l22.298 2.372z"/>
 <path d="m510.75 495.2c0.028-0.777 0.072-1.553 0.088-2.332 0.199 0.598 0.384 1.202 0.561 1.808l15.554-12.536 1.448 0.129 15.763 1.693c0.58-1.781 1.669-3.409 3.239-4.675 4.309-3.473 10.503-2.808 13.977 1.502 3.473 4.309 2.878 10.591-1.431 14.064s-10.661 2.791-14.134-1.519c-0.61-0.757-1.029-1.582-1.386-2.434l-15.372-1.625-15.71 12.662c0.737 2.611 1.61 5.172 2.951 7.562 3.671 6.761 8.315 12.999 13.629 18.574l49.56-39.944 1.413 0.205 18.892 2.004c0.055-0.259 0.12-0.515 0.194-0.77-2.702-5.51-5.573-10.943-9.535-15.665-0.904-1.085-1.793-2.198-2.649-3.339-3.52 1.291-7.552 0.508-10.343-2.159l-5.528 4.455-1.419-0.152-33.838-3.635-58.625 47.25-0.449-0.022c0.325 1.603 0.66 3.209 0.998 4.811l32.152-25.912z"/>
 <path d="m655.1 566.44l-5.502 14.247-0.283 0.9-57.527 46.366c0.545 0.832 1.123 1.646 1.739 2.438l68.544-55.245c-2.242-2.967-4.569-5.868-6.971-8.706z"/>
 <path d="m349.27 901.44c8e-3 -0.851 0.019-1.699 0.03-2.549l-1.276 1.275-0.027 0.024c0.422 0.42 0.85 0.832 1.273 1.25z"/>
 <path d="m286.17 829.89l14.977-14.977c-0.807-0.807-1.606-1.627-2.417-2.427l-14.64 14.641c0.69 0.909 1.378 1.82 2.072 2.723l8e-3 0.04z"/>
 <path d="m342.38 860.72c-1.657-2.053-3.323-4.098-5.007-6.124-0.091 0.023-0.19 0.032-0.283 0.052l-16.566 16.566c1.785 1.987 3.577 3.999 5.39 5.971l16.466-16.465z"/>
 <path d="m269.67 785.73c-2.09-1.79-4.192-3.564-6.306-5.32l-7.204 7.204c1.53 2.34 3.088 4.649 4.65 6.976l8.86-8.86z"/>
 <path d="m287.25 801.45c-2.409-2.248-4.837-4.469-7.281-6.67l-11.274 11.274c1.913 2.728 3.827 5.456 5.787 8.165l12.768-12.769z"/>
 <path d="m311.51 825.53c-0.266-0.279-0.537-0.554-0.803-0.833l-11.338 11.338c0.346 0.18 0.684 0.375 1.006 0.592l11.135-11.097z"/>
 <path d="m331.13 854.16c-3.391-1.382-5.816-4.578-6.126-8.406l-14.32 14.32c2.24 2.601 4.505 5.164 6.791 7.742l13.655-13.656z"/>
 <path d="m304.74 853.07l16.766-16.766c-1.765-1.947-3.538-3.883-5.323-5.807l-11.845 11.808c0.223 0.83 0.448 1.715 0.448 2.616 0 2.208-0.716 4.235-1.917 5.882 0.626 0.755 1.241 1.515 1.871 2.267z"/>
 <path d="m250.68 779.14c0.544 0.86 1.116 1.704 1.665 2.563l5.68-5.68c-0.78-0.632-1.569-1.249-2.351-1.876l-4.994 4.993z"/>
 <path d="m509.65 922.91l0.026-77.815v-1.902l18.794-18.794c-1.363-2.657-2.693-5.33-3.968-8.027l-24.814 24.814-0.026 77.974 0.026 1.929-41.114 41.114v27.48c3.971 2.586 7.936 5.118 11.943 7.609v-35.248l39.133-39.134z"/>
 <path d="m530.82 898.89l-0.027-0.925 21.455-21.455-2.396-8.815c-0.458-1.033-0.917-2.066-1.378-3.098l-10.864-10.864-0.026-0.872 0.048-10.957c-0.278-0.533-0.545-1.071-0.827-1.602-1.277-2.475-2.579-4.94-3.881-7.407l-14.073 14.072-0.026 77.815v1.902l-39.159 39.159-0.026 37.018c5.528 3.317 11.111 6.533 16.699 9.671l-0.026-57.099 0.026-0.925 26.951-26.951 0.026-35.379v-0.951l7.557-7.557c-0.904-0.465-1.752-1.065-2.51-1.823-3.914-3.914-3.94-10.17-0.026-14.083 3.914-3.914 10.249-3.966 14.163-0.053 3.913 3.913 3.887 10.276-0.027 14.189-1.725 1.725-3.856 2.57-6.104 2.774l-8.402 8.402v35.353l-0.053 1.004-26.977 26.977-1e-3 58.659c1.759 0.97 3.52 1.954 5.284 2.907v-60.296l-0.079-0.978 24.626-24.626 0.053-33.186z"/>
 <path d="m550.32 937.63v-33.08l0.079-0.925 10.62-10.62c-0.342-0.8-0.694-1.596-1.04-2.394l-13.277 13.277v32.394l0.053 1.004-28.484 28.484 0.026 58.579c1.425 0.732 2.826 1.473 4.254 2.193v-60.244l0.053-0.951 27.716-27.717z"/>
 <path d="m353.87 875.44l-15.207 15.207c2.025 2.091 4.047 4.189 6.104 6.262l14.376-14.376c-1.744-2.379-3.5-4.745-5.273-7.093z"/>
 <path d="m504.5 627.37l-2.88-0.026-31.813 0.053-12.551 12.551-0.026 35.434v2.801l-143 143c3.643 3.817 7.224 7.706 10.774 11.632l50-50 4.994-18.417 0.291-1.189 64.709-64.709h1.902l18.285 0.054c0.484-1.361 1.19-2.669 2.273-3.752 3.913-3.913 10.328-3.887 14.242 0.026 3.913 3.913 3.887 10.276-0.026 14.189s-10.276 3.94-14.189 0.027c-0.437-0.437-0.771-0.933-1.11-1.427l-17.65 0.053-60.244 60.244-4.967 18.39-0.264 1.216-52.142 52.142c2.262 2.581 4.507 5.179 6.728 7.805l65.367-65.367 3.224-12.102 0.211-0.634 5.1-5.1c-3.655-3.931-3.666-10.073 0.159-13.898 3.913-3.913 10.302-3.861 14.215 0.053 3.913 3.913 3.913 10.249 0 14.163-2.852 2.852-6.996 3.604-10.543 2.299l-4.941 4.941-3.197 12.128-0.185 0.555-66.476 66.476c1.721 2.066 3.432 4.141 5.128 6.233l91.765-91.765 0.027-30.73c-0.01-0.491 0.139-0.973 0.423-1.374-2.144-3.821-1.684-8.78 1.559-12.022 3.913-3.913 10.302-3.808 14.215 0.106s3.913 10.197 0 14.11c-3.154 3.154-7.865 3.781-11.626 1.85l0.026 28.985-0.053 0.951-93.464 93.464c1.97 2.469 3.92 4.958 5.855 7.462l68.936-68.936 0.925 0.026 8.825-0.053 4.598-7.927c-1.501-3.625-0.759-7.908 2.193-10.86 3.913-3.913 10.17-3.887 14.083 0.026s3.966 10.196 0.053 14.11c-3.65 3.65-9.359 3.874-13.291 0.714l-4.333 7.398-0.634 1.163-1.295-0.026h-9.248l-68 68c1.781 2.341 3.536 4.708 5.286 7.08l71.541-71.541 1.295 0.291 14.321 3.858 14.322-14.322v-15.22l-14.85-14.85 0.079-0.978-0.026-13.713-0.053-0.951 23.649-23.649h1.004l19.58-0.026c0.481-1.03 1.183-2.028 2.035-2.88 3.682-3.682 9.483-3.921 13.416-0.678-0.722-6.556-1.12-13.143-0.862-19.747 0.14-7.539 0.43-15.085 0.539-22.63-0.158 0.183-0.315 0.366-0.488 0.54-3.913 3.913-10.249 3.913-14.163 0-3.913-3.913-3.966-10.302-0.053-14.215s10.355-3.913 14.268 0c0.126 0.126 0.236 0.261 0.354 0.392-0.078-2.606-0.186-5.211-0.371-7.815-0.142-2.072-0.295-4.144-0.452-6.217l-5.598-5.598-18.153 0.026c-0.387 1.832-1.216 3.541-2.642 4.967-3.913 3.913-10.276 3.94-14.189 0.026-3.913-3.913-3.887-10.276 0.027-14.189 3.913-3.913 10.196-3.861 14.11 0.053 1.318 1.318 2.186 2.943 2.616 4.624l19.288-0.052h0.898l3.091 3.09c-0.525-6.508-1.076-13.017-1.592-19.527-0.173-0.438-0.34-0.877-0.512-1.315l-0.651 0.649z"/>
 <path d="m401.19 947.9c-0.336-0.609-0.669-1.222-1.008-1.824h-1.247c0.749 0.612 1.504 1.216 2.255 1.824z"/>
 <path d="m490.52 917.31l-0.026-78.026 0.026-1.876 30.038-30.038c-0.39-0.974-0.767-1.953-1.133-2.937l-62.383 62.383-4.069 15.167-0.159 0.529-52.981 52.981c2.44 4.192 4.844 8.413 7.195 12.675l63.806-63.806c-1.528-0.462-3.044-1.247-4.254-2.457-3.913-3.914-3.86-10.249 0.053-14.163s10.223-3.94 14.136-0.026c3.913 3.913 3.913 10.249 0 14.163-0.962 0.962-2.095 1.678-3.276 2.167-0.114 0.196-0.257 0.374-0.423 0.528l-67.766 67.767c0.631 1.164 1.253 2.335 1.877 3.504 12.536 9.773 25.298 19.037 38.278 27.789l-0.026-23.331v-1.902l41.087-41.091z"/>
 <path d="m453.14 245.88c1.548-0.248 3.05-0.732 4.465-1.592 3.911-2.719 5.632-7.424 7.281-11.703l-24.206-24.206 0.079-0.978-0.053-13-15.008-15.008h-37.889l-13.793-13.793h-48.074c0.136 1.503 0.262 3.006 0.365 4.509 0.055 0.765 0.141 1.525 0.213 2.288l47.681-0.059 0.951 0.106 24.335 24.335 8.218 0.026c-0.466-3.435 0.604-7.051 3.25-9.697 4.5-4.5 11.776-4.553 16.276-0.053s4.474 11.803-0.027 16.303c-4.5 4.5-11.776 4.5-16.276 0-0.634-0.634-1.183-1.333-1.638-2.061h-10.675l-1.004 0.053-24.389-24.389h-46.184c0.32 2.411 0.691 4.815 1.098 7.214h42.893l1.453 0.026 30.069 30.069 31.206-0.026 1.506-0.026 17.94 17.94-0.079 1.453 0.016 12.269z"/>
 <path d="m635.3 547.87l0.078-0.73c-2.319-1.708-4.631-3.423-6.733-5.384l-2.281 21.234-0.152 1.419-44.551 35.908c0.473 1.413 0.897 2.845 1.254 4.304 0.131 0.505 0.263 1.011 0.396 1.518l49.92-40.234 2.069-18.035z"/>
 <path d="m743.73 756.55c2.484-1.985 4.832-3.86 7.039-5.619-0.838-1.823-1.677-3.645-2.515-5.467l-27.739 22.357-0.946-0.102-8.851-0.977-4.861 3.918c-2.385 7.454-5.434 14.704-7.264 22.324 16.303-13.252 32.385-26.249 45.137-36.434z"/>
 <path d="m498.25 326.66c1.762-0.557 3.644-0.611 5.432-0.169l-4.589-5.694c-2.028-0.25-4.066-0.442-6.092-0.649l5.249 6.512z"/>
 <path d="m609.81 559.06c-3.752 3.024-8.983 2.932-12.57 5e-3l-25.854 20.837c2.753 4.442 5.409 8.97 7.592 13.702l40.747-32.841 2.84-26.437c-0.912-1.461-1.759-2.965-2.583-4.471-1.82-3.354-3.572-6.743-5.29-10.149l-53.775 43.341c2.272 3.641 4.541 7.286 6.777 10.951l26.051-20.996c-0.619-3.475 0.571-7.131 3.519-9.508 4.309-3.473 10.609-2.796 14.082 1.513 3.473 4.31 2.773 10.581-1.536 14.053z"/>
 <path d="m650.01 560.65c-2.456-2.682-4.979-5.302-7.583-7.841-0.238-0.228-0.491-0.438-0.734-0.659l-1.727 15.856-0.153 1.419-54.489 43.917c0.89 2.899 1.904 5.758 3.144 8.505l55.044-44.364 6.498-16.833z"/>
 <path d="m351.08 871.79c-1.928-2.512-3.868-5.01-5.832-7.485l-16.211 16.211c2.14 2.297 4.269 4.594 6.447 6.87l15.596-15.596z"/>
 <path d="m534.87 532.93c3.564 3.336 7.489 6.304 11.155 9.533l23.584-19.008c0.161-0.102 0.331-0.19 0.507-0.264-2.354-4.185-1.414-9.563 2.452-12.679 4.309-3.473 10.504-2.807 13.976 1.502 3.473 4.309 2.925 10.649-1.384 14.122-2.984 2.405-6.964 2.735-10.266 1.315-0.206 0.526-0.54 0.991-0.97 1.357l-22.961 18.506c0.269 0.301 0.551 0.588 0.811 0.897 1.807 3.011 3.651 6.002 5.503 8.989l54.293-43.759c-1.908-3.892-3.788-7.797-5.671-11.701-1.588-0.622-3.042-1.643-4.183-3.059-0.34-0.422-0.613-0.807-0.874-1.263l-19.277-2.125-46.695 37.637z"/>
 <path d="m561.7 370.55c-11.028-20.747-28.833-38.162-50.767-46.975-0.373-0.152-0.749-0.296-1.126-0.433l36.908 45.793 14.985 1.615z"/>
 <path d="m542.18 935.41l-0.026-32.474v-0.951l15.863-15.863c-0.927-2.053-1.845-4.11-2.757-6.17l-19.922 19.922v34.137l-24.599 24.599 0.026 61.802c0.981 0.519 1.951 1.045 2.933 1.559v-57.232l0.027-0.872 28.455-28.457z"/>
 <path d="m537.98 411.2c-1.497 1.206-3.202 1.877-4.982 2.096l-2.23 20.755-0.141 1.314-58.886 47.461c0.473 3.221 0.963 6.426 1.488 9.647l55.89-45.046 1.413 0.205 27.018 2.796 20.333-16.388c-0.758-7.45-1.518-14.9-2.942-22.261-2.578-11.447-4.746-23.177-9.599-33.922l-20.775-2.25-1.395-0.123-31.894-39.571c0.076 2.658-0.891 5.34-2.921 7.37-0.018 0.018-0.037 0.032-0.055 0.049l-7.332 18.795 0.188 0.233c4.289-3.112 10.234-2.367 13.598 1.806 3.473 4.309 2.773 10.579-1.536 14.052s-10.556 2.802-14.029-1.507c-1.942-2.41-2.518-5.454-1.956-8.262l-4.08-5.062 0.7-1.812 5.967-15.494c-2.047-0.309-4.02-1.244-5.601-2.825-1.148-1.148-1.952-2.505-2.43-3.945-0.032 2.886-1.307 5.735-3.731 7.689-4.27 3.442-10.515 2.731-14.006-1.478l-6.831-0.734c-2.361 28.108-2.685 56.637-0.956 85.336l3.229-2.603 2.393-22.278c-1.272-0.624-2.509-1.505-3.459-2.684-3.473-4.309-2.743-10.603 1.565-14.076 4.309-3.473 10.586-2.825 14.058 1.484 3.473 4.309 2.82 10.638-1.49 14.111-1.15 0.927-2.527 1.524-3.868 1.87l-2.523 23.726-0.123 1.395-9.194 7.41c0.281 3.787 0.606 7.579 0.958 11.371l23.333-18.806c-0.66-3.504 0.525-7.19 3.502-9.589 4.309-3.473 10.69-2.814 14.163 1.495s2.738 10.655-1.571 14.128c-3.728 3.005-8.912 2.789-12.507-0.095l-26.126 21.057c0.597 5.622 1.285 11.254 2.039 16.881l53.504-43.123 2.185-20.096c-0.881-0.569-1.743-1.21-2.435-2.069-3.473-4.309-2.825-10.585 1.484-14.058s10.608-2.796 14.081 1.513c3.477 4.31 2.823 10.639-1.485 14.112z"/>
 <path d="m446.29 245.79l-8e-3 -10.833-13.872-13.872-31.285 0.052h-1.427l-30.044-30.044h-40.308c0.474 2.679 0.935 5.36 1.342 8.048l33.735-0.014 0.978-0.026 30.914 30.914 29.911 0.053 0.925 0.026 14.4 14.4-0.017 0.566c1.551 0.237 3.148 0.519 4.756 0.73z"/>
 <path d="m471.11 208.98c-2.365-0.033-4.697-0.808-6.596-2.347-0.286-0.23-0.528-0.528-0.793-0.793-1.617-1.617-2.576-3.67-2.933-5.787l-34.138-34.138-32.156-0.026-1.453 0.026-11.758-11.758-56.588-0.068c0.278 2.314 0.546 4.629 0.794 6.943l49.532 0.021 0.925 0.026 13.74 13.74 36.913 0.027 0.951-0.053 17.756 17.756-0.027 0.978v12.947l21.206 21.206c1.843-6.148 3.177-12.441 4.625-18.7z"/>
 <path d="m486.23 322.7l-16.499-1.772c-0.714 5.653-1.364 11.35-1.91 17.042l3.993 0.429c0.205-2.65 1.413-5.218 3.651-7.022 4.309-3.473 10.632-2.767 14.105 1.542 0.779 0.967 1.338 2.037 1.706 3.15 0.017-1.812 0.528-3.617 1.532-5.206l-6.578-8.163z"/>
 <path d="m395.39 234.7l-1.004-0.053-30.914-30.914-32.154-0.014c6e-3 0.05 0.015 0.101 0.02 0.151 0.254 1.848 0.338 3.701 0.32 5.555l25.341-0.011h1.797l37.52 37.52 9.697 0.026c0.485-1.332 1.202-2.629 2.272-3.699 3.914-3.914 10.276-3.887 14.189 0.026 1.713 1.713 2.666 3.881 2.868 6.106 0.634-1.022 1.362-1.982 2.241-2.834 2.094-1.797 4.685-2.28 7.338-2.24l-9.699-9.699-29.832 0.08z"/>
 <path d="m788.38 843.61c-1.141-3.841-2.248-7.692-3.25-11.571l-1.873 17.379-0.203 1.892-14.932 12.035c-0.336 1.964-0.774 3.913-1.24 5.848l20.519-16.538 0.979-9.045z"/>
 <path d="m648.27 1210.4c-0.818-1.781-1.631-3.564-2.444-5.347l-50.721 8.781-0.968 0.141-64.944-45.734c1.382 4.114 2.764 8.227 4.272 12.286l56.764 39.973 58.041-10.1z"/>
 <path d="m381.99 915.74l-1.552 1.552c0.918 2.126 1.85 4.247 2.789 6.366 0.749-0.76 1.509-1.532 2.28-2.314-1.166-1.875-2.332-3.749-3.517-5.604z"/>
 <path d="m352.88 895.31c4.972 0.715 10.029 1.4 14.926 0.01 0.132-0.038 0.267-0.075 0.405-0.111-2.085-2.992-4.195-5.958-6.323-8.906l-9.008 9.007z"/>
 <path d="m436.88 845.76l8.957 0.027 38.604-38.603v-28.748l0.026-0.925 27.376-27.376c-0.169-4.122-0.447-8.235-1.001-12.325-0.325 0.459-0.683 0.903-1.095 1.314-3.913 3.913-10.25 3.913-14.163 0-1.867-1.867-2.741-4.246-2.827-6.685l-17.835-0.026-21.006 21.006 0.026 11.917 14.797 14.797 0.026 0.872-0.026 17.307v0.898l-17.466 17.466-1.321-0.264-14.321-3.858-70.159 70.159c2.661 3.664 5.277 7.372 7.865 11.105l65.628-65.628 0.951-0.053 11.415 0.053 24.917-24.917 0.053-34.825c-2.99 0.409-6.177-0.47-8.482-2.774-3.913-3.913-3.913-10.197 0-14.11s10.223-3.94 14.136-0.026c3.913 3.913 3.913 10.249 0 14.163-0.367 0.367-0.731 0.68-1.137 0.977v38.472l-27.612 27.612-0.872-0.026h-11.467l-64.905 64.904c1.093 1.603 2.183 3.208 3.262 4.823l56.728-56.728 0.928 0.025z"/>
 <path d="m323.51 946.08l-5.306 5.231v25.672l-1.084 0.598-13.116 7.586-0.523 0.299h-26.419l-12.742 12.705c0.746 1.41 1.233 3.008 1.233 4.708 0 5.534-4.48 9.977-10.015 9.977-5.534 0-10.014-4.443-10.014-9.977s4.48-10.052 10.014-10.052c2.167 0 4.156 0.652 5.792 1.831l13.116-13.041 0.673-0.747h27.092l11.434-6.577v-24.812l0.673-0.71 6.614-6.614 0.747-0.635h31.495c-0.083-1.122-0.174-2.243-0.283-3.363h-45.598l-10.351 10.313v5.344c4.632 0.877 8.146 4.862 8.146 9.753 0 5.534-4.481 10.015-10.014 10.015-5.534 0-10.015-4.481-10.015-10.015 0-3.705 2.021-6.903 5.007-8.632v-9.342l1.009-1.009 12.331-12.293 1.009-0.972h47.676c-0.198-1.496-0.405-2.991-0.624-4.485h-56.542l-31.016 30.94c1.196 1.642 1.981 3.608 1.981 5.792 0 5.534-4.592 10.015-10.127 10.015-5.534 0-9.977-4.481-9.977-10.015s4.443-9.977 9.977-9.977c0.823 0 1.586 0.188 2.354 0.374l32.959-32.959 0.971-1.009h58.384c-0.068-0.439-0.135-0.879-0.203-1.318-0.552-3.366-0.795-6.756-0.9-10.154-0.051-0.05-0.103-0.099-0.155-0.149h-71.663l-11.995 11.883c0.191 0.768 0.374 1.568 0.374 2.391 0 5.534-4.592 10.015-10.127 10.015-5.534 0-9.977-4.48-9.977-10.015 0-5.534 4.443-10.089 9.977-10.089 2.183 0 4.211 0.747 5.867 1.943l12.032-12.033 1.009-1.009h67.524c-15.283-15.339-29.684-31.189-43.203-47.477-1.271 0.583-2.682 0.918-4.179 0.918-5.535 0-10.014-4.443-10.014-9.977 0-2.264 0.759-4.345 2.024-6.021-1.295-1.651-2.578-3.307-3.855-4.966v26.197l-2.055 1.98-46.896 46.933v30.755c1.202 1.651 1.906 3.664 1.906 5.867 0 5.534-4.48 10.052-10.014 10.052s-9.977-4.517-9.977-10.052c0-3.423 1.721-6.456 4.335-8.258v-34.079l1.981-1.98 46.971-46.933v-31.837l1.98-2.018 0.996-0.996c-11.99-16.444-23.133-33.258-33.431-50.374v52.826l-0.635 0.747-15.358 15.32c1.645 1.782 2.653 4.215 2.653 6.838 0 5.534-4.481 9.977-10.014 9.977-4.82 0-8.837-3.371-9.795-7.896-0.288 2.623-0.581 5.246-0.851 7.871-2.341 20.231-4.691 40.558-3.844 60.963 0.332 12.945 2.027 25.795 3.992 38.575 3.695 24.031 8.534 47.86 12.998 71.76 1.834 9.434 2.035 19.078 3.381 28.582 0.086 0.697 0.199 1.388 0.308 2.079h80.053l17.451-17.413 0.673-0.673h29.628c0.061-0.872 0.126-1.744 0.187-2.616h-31.384l-13.714 13.751c-0.844 0.834-2.181 0.899-3.101 0.149-1.824 2.425-4.759 3.961-8.034 3.961-5.534 0-9.977-4.405-9.977-9.94 0-5.534 4.443-10.052 9.977-10.052 5.535 0 10.014 4.517 10.014 10.052 0 0.173-0.037 0.316-0.037 0.486l12.406-12.369 0.635-0.635h33.543c0.167-2.453 0.32-4.908 0.481-7.361h-73.747l-13.303 13.303c1.56 1.76 2.541 4.046 2.541 6.577 0 5.534-4.592 9.94-10.127 9.94-5.534 0-9.977-4.406-9.977-9.94s4.443-10.052 9.977-10.052c1.306 0 2.588 0.295 3.737 0.747l14.499-14.535 0.747-0.598h75.945c0.268-4.147 0.545-8.294 0.798-12.443h-7.538c-1.603 3.381-5.045 5.68-9.043 5.68-5.534 0-9.94-4.443-9.94-9.977s4.405-10.052 9.94-10.052c5.436 0 9.898 4.352 10.052 9.753h6.77c0.264-5.504 0.543-11.009 0.803-16.516h-26.555l-24.401 24.4c-0.294 0.275-0.654 0.468-1.046 0.56-1.628 1.147-3.57 1.831-5.717 1.831-5.534 0-10.014-4.443-10.014-9.977s4.48-10.052 10.014-10.052c4.842 0 8.859 3.457 9.79 8.034l18.759-18.608 0.673-0.71h28.701c0.223-5.006 0.414-10.013 0.552-15.022h-8.553c-1.254 4.091-4.983 7.062-9.491 7.062-5.535 0-10.089-4.481-10.089-10.014 0-5.534 4.555-9.977 10.089-9.977 4.967 0 9.075 3.594 9.865 8.333h8.289c0.08-3.978 0.127-7.957 0.109-11.937 2e-3 -1.304-0.023-2.607-0.07-3.907h-29.928z"/>
 <path d="m390.13 938.76l0.599-0.599h-0.881c0.094 0.199 0.188 0.399 0.282 0.599z"/>
 <path d="m304.3 1060.7l-0.747 0.71h-81.085c1.502 6.64 3.858 13.042 6.271 19.432h66.369l29.558-29.482 0.635-0.635h23.243c0.182-2.466 0.352-4.933 0.528-7.399h-27.396l-17.376 17.374z"/>
 <path d="m488.86 824.17c-4.066 3.904-9.551 9.343-16.012 15.748-12.923 12.808-29.61 29.565-46.135 46.239-12.583 12.698-24.727 25.006-35.119 35.552 1.982 3.215 3.939 6.452 5.868 9.711l51.182-51.182 4.122-15.114 0.132-0.608 64.885-64.885c-3.515-11.244-4.846-23.072-5.376-34.81-0.162-2.799-0.255-5.603-0.343-8.408l-23.074 23.074 0.053 28.59-0.026 0.978-41.298 41.298h-0.951l-8.904-0.026-56.045 56.045c2.461 3.744 4.891 7.515 7.279 11.323 10.33-10.48 22.278-22.589 34.341-34.763 16.526-16.683 33.219-33.439 46.161-46.266 6.47-6.414 11.991-11.891 16.091-15.827 2.05-1.969 3.758-3.506 5.047-4.677 1.288-1.172 1.905-1.842 2.88-2.404 0.296-0.171 1.082-1.374 1.321-3.699 0.238-2.326 0.056-5.395-0.29-8.376-0.694-5.962-2.14-11.6-2.14-11.6-0.099-0.491-0.034-1.002 0.185-1.453-0.687-3.209 0.21-6.657 2.695-9.142 3.914-3.914 10.276-3.887 14.189 0.026 3.914 3.913 3.913 10.249 0 14.163-3.044 3.044-7.538 3.675-11.23 1.982 0.295 1.692 0.62 3.559 0.846 5.496 0.368 3.167 0.536 6.475 0.238 9.38s-0.975 5.758-3.541 7.24c0.262-0.148-0.826 0.675-2.061 1.797-1.237 1.122-2.936 2.646-4.97 4.598z"/>
 <path d="m385.24 928.15c0.476 1.055 0.945 2.112 1.425 3.164h4.1l0.523-0.523c-1.09-1.817-2.196-3.623-3.302-5.43-0.932 0.948-1.847 1.877-2.746 2.789z"/>
 <path d="m323.5 1324c0-5.534 4.481-10.015 10.014-10.015 2.45 0 4.685 0.888 6.421 2.351-0.342-3.725-0.799-7.435-1.348-11.133h-12.628l-21.748 21.71c-0.341 0.354-0.786 0.59-1.271 0.673-1.186 4.218-5.018 7.399-9.603 7.399-5.534 0-9.977-4.592-9.977-10.126 0-5.535 4.443-9.977 9.977-9.977 4.461 0 8.235 2.888 9.529 6.913l20.477-20.514 0.71-0.635h13.809c-0.444-2.648-0.927-5.289-1.444-7.926-0.501 0.076-1.015 0.116-1.539 0.116-5.534 0-9.94-4.443-9.94-9.977 0-4.588 3.032-8.443 7.222-9.63-0.411-1.762-0.825-3.522-1.24-5.281-0.331-1.326-0.618-2.659-0.87-3.997h-0.368l-10.762 10.762v21.001l-0.747 0.635-9.678 9.715-0.635 0.71h-33.444l-0.71-0.71-13.864-13.826c-1.068 0.388-2.27 0.598-3.475 0.598-5.534 0-10.015-4.443-10.015-9.977s4.48-10.015 10.015-10.015c5.534 0 10.014 4.481 10.014 10.015 0 2.64-1.064 4.941-2.728 6.726l12.593 12.63h29.707l8.408-8.445v-20.926l0.598-0.635 12.257-12.22 0.635-0.635h1.463c-0.371-2.717-0.647-5.448-0.897-8.182h-3.002l-24.662 24.587c2.404 1.825 4.036 4.701 4.036 7.959 0 5.534-4.443 9.977-9.977 9.977s-10.014-4.443-10.014-9.977 4.48-10.015 10.014-10.015c0.518 0 0.998 0.036 1.495 0.113l26.568-26.569 0.635-0.635h4.496c-0.122-1.334-0.25-2.667-0.39-3.998h-5.228l-20.328 20.328-0.673 0.635h-65.249c-1.253 12.475-2.558 24.943-1.918 37.504 0.323 10.072 2.131 20.012 3.826 29.927 1.74 9.677 3.566 19.337 5.438 28.988l4.949-4.942 1.98-1.98h87.877c0.131-0.993 0.267-1.986 0.394-2.979 0.108-0.912 0.216-1.825 0.325-2.738h-65.578l-1.345-1.345-12.891-12.967c-1.304 0.62-2.729 1.046-4.26 1.046-5.534 0-10.052-4.555-10.052-10.089s4.517-10.014 10.052-10.014 10.052 4.48 10.052 10.014c0 0.618-0.114 1.205-0.224 1.794l12.518 12.443h62.703c0.21-2.331 0.37-4.665 0.46-7.001-1.785 1.762-4.223 2.853-6.931 2.853-5.533-2e-3 -10.014-4.557-10.014-10.091z"/>
 <path d="m396.19 939.14l-2.381 2.381h3.763c-0.458-0.8-0.921-1.589-1.382-2.381z"/>
 <path d="m246.67 1376.2c1.183 5.915 2.378 11.828 3.59 17.737 1.532-0.945 3.334-1.499 5.272-1.499 5.534 0 10.015 4.443 10.015 9.977 0 1.595-0.385 3.11-1.046 4.447l11.061 11.061h52.494c0.375-2.257 0.751-4.514 1.129-6.771-3.058-1.713-5.126-4.98-5.126-8.738 0-4.924 3.55-8.976 8.231-9.811 0.356-2.147 0.71-4.295 1.06-6.444h-15.242l-14.574 14.574c0.226 0.83 0.448 1.677 0.448 2.578 0 5.534-4.555 9.977-10.089 9.977s-9.977-4.443-9.977-9.977 4.443-10.015 9.977-10.015c1.228 0 2.458 0.232 3.55 0.635l15.545-15.582 1.383-1.345h20.448c0.535-3.397 1.054-6.796 1.559-10.198h-80.329l-9.379 9.394z"/>
 <path d="m313.18 1544.4l-0.972-1.046-13.452-13.416c-1.723 1.406-3.874 2.279-6.278 2.279-5.534 0-9.977-4.443-9.977-9.977s4.443-10.089 9.977-10.089 10.014 4.555 10.014 10.089c0 0.542-0.029 1.013-0.112 1.532l13.676 13.751h16.644c-0.207-2.082-0.451-4.16-0.729-6.234-5.229-0.326-9.3-4.59-9.3-9.908 0-3.5 1.766-6.62 4.461-8.443-0.525-1.208-0.962-2.448-1.167-3.77-0.286-1.532-0.549-3.067-0.801-4.604h-49.534l-3.171 3.171c0.221 3.631 0.277 7.278 0.108 10.945-0.306 4.438-1.983 8.7-1.817 13.199 0.253 8.84 1.066 18.099-2.315 26.503-1.102 2.357-2.528 4.521-4.091 6.594l15.691 15.67h29.445l1.009 1.009 17.598 17.564c1.213-2.337 2.008-4.9 2.353-7.516l-23.837-23.836h-5.867c-1.796 2.66-4.799 4.447-8.258 4.447-5.534 0-9.977-4.48-9.977-10.015 0-5.534 4.443-9.977 9.977-9.977 5.089 0 9.262 3.795 9.902 8.707h7.1l1.009 1.009 19.054 19.054c-0.771-3.695-1.655-7.377-2.101-11.114-2.868-1.734-4.772-4.869-4.772-8.501 0-5.534 4.405-10.052 9.94-10.052 0.183 0 0.362 0.018 0.543 0.028 0.129-0.675 0.204-1.369 0.184-2.094 2e-3 -1.655-0.052-3.308-0.13-4.96h-20.027z"/>
 <path d="m237.97 1239.2c-0.179 6.614-0.736 13.208-1.375 19.797h62.999l20.178-20.254 0.71-0.673h6.584c-0.113-0.816-0.232-1.631-0.365-2.443-0.222-1.243-0.221-2.472-0.089-3.688-0.858-0.038-1.633-0.077-2.319-0.11-1.74-0.082-2.649-0.044-3.737-0.336-0.33-0.089-1.737 0.206-3.55 1.682s-3.854 3.775-5.717 6.128c-3.725 4.706-6.689 9.716-6.689 9.716-0.278 0.417-0.684 0.733-1.158 0.897-1.784 2.755-4.855 4.559-8.37 4.559-5.535 0-10.015-4.517-10.015-10.052s4.48-10.015 10.015-10.015c4.305 0 7.929 2.732 9.342 6.539 0.988-1.405 2.078-2.955 3.288-4.484 1.979-2.5 4.2-4.958 6.465-6.801 2.264-1.843 4.761-3.382 7.623-2.616-0.289-0.08 1.061 0.107 2.728 0.187 0.857 0.042 1.879 0.094 3.05 0.144 0.274-0.998 0.563-1.992 0.818-2.983h-40.152l-21.935 22.047c-1.224 4.168-5.079 7.175-9.641 7.175-5.534 0-10.052-4.443-10.052-9.977s4.518-10.089 10.052-10.089c4.306 0 7.984 2.75 9.417 6.577l19.655-19.617 0.673-0.673h43.177c0.256-0.959 0.512-1.918 0.769-2.878h-47.384l-12.967 7.511-1.084 0.672h-28.773l-1.861 1.851c-0.105 4.069-0.209 8.138-0.31 12.207z"/>
 <path d="m300.94 1146.8l-0.635 0.673h-60.799c0.064 11.397-0.024 22.793-0.206 34.188h62.352l11.509-11.434v-15.844l0.299-0.523 6.689-11.659 0.71-1.121h18.201c0.067-0.787 0.144-1.574 0.233-2.361 0.125-1.32 0.279-2.637 0.441-3.952h-14.954l-22.832 24.028c0.989 1.552 1.532 3.4 1.532 5.381 0 5.534-4.443 10.015-9.977 10.015s-9.977-4.481-9.977-10.015 4.443-10.014 9.977-10.014c1.887 0 3.652 0.516 5.157 1.42l23.579-24.662 0.635-0.71h17.48c0.12-0.81 0.247-1.619 0.374-2.428h-20.77l-19.018 19.018z"/>
 <path d="m297.69 1084.8l-0.672 0.598h-66.559c1.86 4.982 3.633 9.991 4.929 15.138 3.739 12.657 3.835 25.935 4.062 39.02 0.014 1.13 0.013 2.259 0.024 3.389h58.926l18.983-18.946 0.71-0.71h23.372c1.012-6.104 2.042-12.206 2.629-18.367l-8.438 8.464-0.747 0.672h-38.266v1.383c4.124 1.252 7.137 4.997 7.137 9.529 0 5.534-4.443 10.052-9.977 10.052s-10.014-4.518-10.014-10.052c0-4.94 3.595-8.994 8.296-9.828v-5.605h40.916l11.726-11.726c0.453-5.133 0.897-10.267 1.326-15.402h-1.244c0.029 0.312 0.074 0.614 0.074 0.934 0 5.534-4.48 10.052-10.014 10.052s-10.089-4.517-10.089-10.052c0-5.534 4.555-9.977 10.089-9.977 3.495 0 6.545 1.777 8.333 4.484h3.238c0.364-4.433 0.701-8.869 1.048-13.303h-16.84l-11.061 11.098v32.771h-43.009l-11.36 11.36c0.932 1.525 1.495 3.288 1.495 5.194 0 5.534-4.518 10.052-10.052 10.052s-10.052-4.518-10.052-10.052c0-5.535 4.518-10.052 10.052-10.052 1.962 0 3.752 0.586 5.306 1.569l12.033-11.958 0.747-0.673h40.244v-30.156l0.747-0.71 12.256-12.293 0.747-0.747h19.107c0.119-1.557 0.251-3.114 0.368-4.672h-21.081l-29.445 29.522z"/>
 <path d="m334.19 1148.8c1.648 0 3.14 0.422 4.472 1.138 0.017-1.414 0.049-2.826 0.107-4.238h-15.303l-5.755 10.052v16.405l-0.598 0.635-12.891 12.779-0.673 0.747h-64.333c-0.178 9.903-0.409 19.805-0.66 29.707h27.886l13.041-7.548 1.121-0.635h52.156c1.248-4.851 2.418-9.72 3.387-14.624l-4.8 4.796-1.345 1.345h-56.086l-8.781 8.781c-0.266 0.287-0.567 0.538-0.897 0.747-1.795 2.783-4.93 4.634-8.482 4.634-5.534 0-9.977-4.443-9.977-9.977s4.443-10.052 9.977-10.052c3.023 0 5.734 1.4 7.586 3.513l5.493-5.493 1.308-1.308h56.051l12.155-12.147c0.074-0.87 0.143-1.74 0.195-2.613 0.163-2.589 0.225-5.181 0.24-7.774-1.371 0.712-2.929 1.12-4.593 1.12-5.535 0-10.052-4.443-10.052-9.977-1e-3 -5.533 4.516-10.013 10.051-10.013z"/>
 <path d="m588.18 1060.6c-59.711-22.095-117.66-53.52-171.46-94.124 9.562 18.747 18.302 38.099 26.118 58.02 0.803 1.088 1.604 2.177 2.408 3.264 7.678 10.631 15.662 21.043 24.214 30.993 12.203 14.23 21.733 30.468 30.731 46.847 7.678 14.09 15.103 28.337 21.655 42.995 1.279 2.867 2.434 5.785 3.523 8.73 11.101-22.542 24.048-44.436 38.886-65.508 7.608-10.805 15.595-21.205 23.92-31.217z"/>
 <path d="m643.87 1200.8c-1.134-2.518-2.25-5.045-3.352-7.577l-43.791 7.601-1.384 0.213-63.793-44.923c-1.028 2.032-2.073 4.068-3.069 6.111l66.787 47.032 48.602-8.457z"/>
 <path d="m644.38 1253.2l0.946-0.111 21.355 15.038 0.154 0.885 6.688 38.53 5.058 3.562c-0.533-2.718-1.067-5.435-1.599-8.153-2-9.259-2.516-18.754-4.263-28.049-0.654-3.515-1.5-6.975-2.48-10.394l-24.87-17.514-60.368 10.504-0.959 0.193-18.181-12.803c0.263 1.233 0.525 2.465 0.777 3.7l20.686 14.567 57.056-9.955z"/>
 <path d="m646.85 1226l1.905-0.304 9.395 6.616c-1.541-3.546-3.125-7.073-4.723-10.593l-3.329-2.344-60.159 10.468-1.875 0.325-47.24-33.267c4e-3 7e-3 7e-3 0.014 0.011 0.021 1.628 2.936 3.506 5.702 5.472 8.411l43.456 30.602 57.087-9.935z"/>
 <path d="m643.22 1262.1l0.928-0.215 14.421 10.155 0.08 0.925 2.968 16.943 0.215 0.928-11.144 15.825 1.916 11.038 23.923 16.847 0.101 0.894 3.293 18.817c2.106-0.075 4.233 0.421 6.093 1.731 0.698 0.492 1.304 1.063 1.835 1.682-2.709-13.345-5.361-26.701-7.987-40.061l-10.573-7.446-0.184-0.907-6.626-38.486-18.301-12.888-56.971 9.834-0.95 0.245-18.355-12.925c0.493 2.603 0.971 5.21 1.434 7.819l13.655 9.615 60.229-10.37z"/>
 <path d="m645.53 1242.4l0.907-0.184 21.548 15.174c-1.067-3.127-2.217-6.228-3.421-9.31l-18.024-12.693-57.005 9.948-1.896 0.356-27.34-19.253c1.754 3.767 3.128 7.708 4.059 11.77l20.796 14.645 60.376-10.453z"/>
 <path d="m689.79 1367.2c-0.303 0.949-0.752 1.868-1.356 2.726-3.186 4.525-9.451 5.639-13.976 2.453s-5.556-9.438-2.37-13.963c0.905-1.285 2.095-2.209 3.382-2.92l-3.181-18.328-23.861-16.803-0.215-0.928-2.198-12.974-0.163-0.937 11.123-15.795-2.621-15.099-11.273-7.939-60.138 10.438-1.041 0.181-11.453-8.065c0.611 3.564 1.213 7.13 1.819 10.695l14.49 10.204 40.728-7.15c0.301-1.045 0.773-2.071 1.435-3.011 3.186-4.525 9.398-5.63 13.923-2.444 4.525 3.187 5.669 9.472 2.483 13.997-3.187 4.525-9.49 5.565-14.015 2.379-2.188-1.54-3.545-3.794-4.03-6.219l-40.664 7.058-0.989 0.172-12.274-8.643c0.329 1.897 0.663 3.793 1.003 5.688l8.987 6.329 33.344-5.814 0.946-0.111 17.2 12.112 0.215 0.928 4.772 27.491 1.68 1.183c3.388-3.195 8.619-3.711 12.578-0.923 4.525 3.187 5.609 9.429 2.422 13.954s-9.407 5.578-13.933 2.391c-3.794-2.672-5.125-7.428-3.592-11.579l-3.391-2.388-0.15-1.02-4.744-27.335-14.206-10.004-33.323 5.784-0.946 0.111-6.673-4.699c0.245 1.289 0.493 2.577 0.749 3.864l21.491 15.134 7.758-1.347c0.079-1.851 0.606-3.716 1.754-5.346 3.186-4.525 9.355-5.569 13.88-2.382 4.525 3.186 5.712 9.411 2.526 13.936s-9.512 5.596-14.037 2.41c-1.524-1.073-2.574-2.514-3.285-4.096l-9.685 1.681-19.036-13.405c0.594 2.755 1.213 5.505 1.878 8.246 0.143 0.527 0.304 1.048 0.45 1.574l116.95 82.356c-2.449-11.255-4.828-22.525-7.147-33.808z"/>
 <path d="m835.13 1629.3c-3.891-2.74-5.212-7.76-3.483-11.99-1.371-1.863-2.792-3.689-4.3-5.439-0.137-0.16-0.289-0.299-0.433-0.45l-4.014 5.7 4.326 25.032c1.518-0.169 3.029-0.377 4.41-1.019 2.821-1.24 6.167-2.472 7.539-5.477 0.509-1.551 0.463-3.13 0.119-4.675-1.454-0.232-2.88-0.778-4.164-1.682z"/>
 <path d="m811.17 1600.7c-3.363-1.074-7.337-1.04-9.888-3.817-15.741-15.426-30.591-31.744-44.829-48.55-9.373-11.268-18.658-22.79-25.498-35.823-1.023-1.839-1.999-3.701-2.936-5.58-1.455-0.237-2.883-0.79-4.172-1.697-4.483-3.157-5.663-9.325-2.585-13.839-1.597-4.214-3.05-8.484-4.395-12.787l-0.585 0.108-19.034-13.404-0.407-2.343-9.436-54.679-101.51-71.481c2.487 6.686 5.259 13.266 8.284 19.727l73.75 51.935 0.377 1.865 6.205 35.904c3.51 3.366 4.174 8.87 1.286 12.971-3.186 4.525-9.408 5.578-13.932 2.391-4.525-3.186-5.63-9.399-2.443-13.923 1.352-1.919 3.269-3.154 5.352-3.771l-5.233-30.148-56.986-40.13c2.316 4.629 4.702 9.222 7.336 13.681 5.678 9.678 11.959 18.982 17.776 28.573 0.938 1.528 1.855 3.068 2.763 4.613 3.012-1.183 6.533-0.882 9.385 1.126 4.525 3.186 5.608 9.429 2.422 13.954-0.673 0.956-1.487 1.747-2.386 2.385 1.532 3.099 3.014 6.224 4.432 9.377 7.573 16.667 14.728 33.552 20.659 50.883 1.564 4.962 3.381 9.941 3.826 15.164 0.122 7.801-6.394 13.391-7.94 20.746-0.07 0.318-0.145 0.635-0.217 0.952l41.004-7.103c0.285-1.218 0.858-2.386 1.623-3.473 3.187-4.525 9.368-5.651 13.893-2.465s5.67 9.472 2.483 13.997c-3.186 4.525-9.49 5.565-14.015 2.379-1.381-0.972-2.362-2.272-3.078-3.676l-43.62 7.602c-1.226 5.143-2.381 10.303-2.877 15.582-0.472 5.39-0.402 11.146 2.166 16.064 2.158 4.298 6.892 6.237 11.085 8.01 7.09 2.711 14.411 4.611 21.816 6.179l-3.011-17.35c-1.419-0.25-2.851-0.82-4.103-1.701-4.524-3.186-5.547-9.386-2.361-13.911s9.39-5.682 13.914-2.496c4.525 3.186 5.679 9.524 2.492 14.049-0.864 1.226-1.981 2.162-3.204 2.862l3.219 18.857 0.215 1.115c5.697 1.072 11.415 2.04 17.092 3.106-3.19-3.391-3.67-8.663-0.883-12.62 3.187-4.525 9.429-5.608 13.954-2.422 4.525 3.187 5.578 9.407 2.391 13.932-1.206 1.713-2.824 2.995-4.645 3.676l3.291 7.097c2.511 2.113 4.979 4.277 7.408 6.478 2.44 2.474 4.768 5.056 7.06 7.674l4.283-6.083-8.395-48.37c-0.101-0.071-0.215-0.061-0.318-0.133-4.525-3.186-5.587-9.46-2.4-13.985 3.186-4.525 9.386-5.547 13.911-2.361s5.621 9.346 2.435 13.871c-1.573 2.233-3.905 3.683-6.388 4.139l8.17 47.069 0.266 1.375-6.923 9.832c2.991 3.463 6.007 6.901 9.206 10.162l0.14-0.199 1.384-0.214 17.039-3.037c0.27-1.304 0.834-2.613 1.651-3.773 3.186-4.525 9.429-5.609 13.954-2.422 4.525 3.186 5.578 9.407 2.392 13.932-3.187 4.525-9.399 5.63-13.924 2.443-1.304-0.918-2.321-2.106-3.033-3.416l-13.577 2.356c6e-3 5e-3 0.011 0.01 0.017 0.015 7.067 6.019 16.955 5.372 25.647 5.529 5.687 0.498 11.391 1.616 16.658 3.896 2.622 0.389 5.423 0.385 8.08-0.177l-5.296-30.376-0.5-2.729 6.894-9.79c-1.24-1.323-2.346-2.812-4.127-3.379z"/>
 <path d="m591.61 1056.5c1.695-1.993 3.404-3.969 5.126-5.93l-0.022-45.738v-0.74c-0.482-2.29-0.978-4.578-1.503-6.859-0.14-0.61-0.29-1.218-0.433-1.828l-7.339 7.339 0.026 52.237c1.376 0.517 2.761 1.019 4.145 1.519z"/>
 <path d="m410.31 964.91l-4.427 4.427c1.408 2.491 2.845 4.966 4.309 7.425l4.079-4.079c-1.307-2.61-2.621-5.187-3.961-7.773z"/>
 <path d="m407.39 959.3c-0.481-0.376-0.958-0.757-1.438-1.135l-4.019 4.019c0.541 1.004 1.07 2.015 1.619 3.014l4.552-4.553c-0.236-0.448-0.476-0.896-0.714-1.345z"/>
 <path d="m416.44 977.02l-3.813 3.808c0.805 1.298 1.625 2.586 2.445 3.874l3.423-3.423c-0.69-1.428-1.357-2.837-2.055-4.259z"/>
 <path d="m429.31 1005.8c0.34 0.481 0.683 0.96 1.024 1.44-0.247-0.575-0.489-1.154-0.737-1.727l-0.287 0.287z"/>
 <path d="m395.51 949.8c1.367 2.737 2.749 5.465 4.171 8.173l2.66-2.66c-2.285-1.821-4.562-3.659-6.831-5.513z"/>
 <path d="m425.46 1000.3c0.397 0.574 0.796 1.147 1.195 1.719l0.992-0.992c-0.298-0.675-0.597-1.345-0.897-2.018l-1.29 1.291z"/>
 <path d="m417.6 988.63c1.722 2.641 3.471 5.264 5.244 7.871l1.924-1.926c-1.36-2.991-2.784-5.969-4.185-8.931l-2.983 2.986z"/>
 <path d="m326.92 1424.8h-54.091l-0.972-1.009-12.294-12.182c-1.222 0.531-2.616 0.822-4.036 0.822-0.502 0-0.991-0.049-1.474-0.12 1.799 8.625 3.612 17.246 5.428 25.867h40.109l17.077-9.865 0.785-0.523h8.982c0.161-0.997 0.324-1.994 0.486-2.99z"/>
 <path d="m452.88 57.461c-4.57-2.314-9.243-4.433-14.021-6.264h-63.618c-4.205 1.859-8.324 3.941-12.303 6.262h89.803l0.139 2e-3z"/>
 <path d="m442.85 72.889h1.427l33.953 33.953-0.713 0.713 1.03 3.726 10.34 10.34c-0.275-5.152-0.583-10.303-0.9-15.451-0.167-1.932-0.344-3.874-0.634-5.795l-36.021-36.021h-98.823c-3.052 2.289-5.975 4.746-8.734 7.382l1.099 1.099 97.976 0.054z"/>
 <path d="m476.56 74.043c-3.782-5.346-9.617-8.63-15.094-11.959-1.991-1.131-4.004-2.232-6.036-3.301l27.616 27.617c-1.714-4.347-3.732-8.564-6.486-12.357z"/>
 <path d="m428.45 99.337h1.48l26 26-0.053 1.427 0.026 20.794 10.992 10.992 16.137-0.038c1.068-2.891 2.217-5.755 3.332-8.631 1.048-2.935 3.573-5.433 3.302-8.744-0.067-3.104-0.17-6.207-0.294-9.309l-17.007-17.007-0.159-0.898-1.374-4.756-29.435-29.435-97.896 0.026-1.427-0.053-3.046-3.046c-1.772 2.018-3.462 4.128-5.037 6.325l3.405 3.405 97.738 0.027 1.48-0.106 36.992 36.992-0.106 1.48 0.079 4.73c3.489-0.731 7.203 0.174 9.856 2.827 4.246 4.245 4.145 11.233-0.238 15.616-4.382 4.382-11.423 4.536-15.669 0.291-3.847-3.847-4.066-9.924-0.819-14.295l0.026-7.795-32.976-32.976-97.712 0.106h-1.427l-4.429-4.429c-1.606 2.771-3.01 5.649-4.168 8.621l1.885 1.885 100.54-0.026z"/>
 <path d="m28.418 819.61v-44.492c-0.089 0.37-0.182 0.74-0.268 1.111-3.217 14.281-2.482 29.071 0.268 43.381z"/>
 <path d="m422.56 116.22c0.287-0.028 0.575-0.02 0.859 0.024 1.872 0.289 3.156 2.041 2.867 3.913l14.454 14.454 0.079 0.978-0.053 14.902 22.063 22.063 19.304-0.053c-8e-3 -0.882-0.032-1.763-0.089-2.642-0.766-1.405-1.105-2.96-1.021-4.519h-17.005l-14.93-14.93v-22.194l-22.01-22.01-100.62 0.052h-1.427l-1.314-1.314c-0.412 1.796-0.737 3.616-0.945 5.462-0.196 1.556-0.334 3.111-0.448 4.665l0.329 0.329 99.905 0.82z"/>
 <path d="m534.69 1149.9l62.204 43.804 40.834-7.088c-0.612-1.469-1.228-2.937-1.821-4.413-0.326-0.806-0.639-1.616-0.947-2.428l-37.556 6.519-0.855 0.175-59.149-41.653c-0.908 1.688-1.821 3.389-2.71 5.084z"/>
 <path d="m72.512 905.09v-32.398l-5.269-5.269h-27.438c2.042 7.861 4.196 15.691 6.503 23.477l1.133-1.133c-0.975-1.545-1.569-3.419-1.569-5.381 0-5.534 4.443-9.94 9.977-9.94s10.089 4.406 10.089 9.94c0 5.535-4.555 10.127-10.089 10.127-1.037 0-1.974-0.231-2.915-0.523l-4.377 4.377c1.212 3.261 3.522 6.04 6.612 7.728 8.897 4.748 18.622 7.717 28.412 10.026l-10.097-10.097-0.972-0.934z"/>
 <path d="m322.92 134.37l83.893-0.026c0.555-1.213 1.242-2.405 2.246-3.409 4.382-4.382 11.397-4.51 15.642-0.264 4.245 4.245 4.092 11.233-0.291 15.616-4.382 4.382-11.344 4.51-15.589 0.264-1.513-1.513-2.418-3.397-2.827-5.364l-82.802 0.026c0.216 2.025 0.447 4.05 0.688 6.074l58.861-0.024h1.427l11.758 11.758 32.104 0.026 1.453-0.026 32.975 32.976c0.426-0.637 0.994-1.205 1.559-1.77 4.188-4.188 10.726-4.479 15.003-0.792 0.823-1.753 1.522-3.558 1.94-5.479 0.441-2.083 0.759-4.197 0.956-6.321l-0.512-0.512h-20.504l-24.678-24.678-0.026-0.925-0.053-15.008-13.369-13.37c-0.089-0.014-0.177-0.032-0.264-0.053l-100.45-0.734c-0.011 3.877 0.169 7.749 0.467 11.619l0.395 0.396z"/>
 <path d="m567.54 1096.2c-0.611 0.867-1.229 1.724-1.829 2.597l34.859 24.548 13.084-2.161c-1.389-2.866-2.715-5.757-3.852-8.724l-7.046 1.227-1.406 0.244-30.919-21.773c-0.971 1.348-1.933 2.681-2.891 4.042z"/>
 <path d="m574.51 1086.5l28.505 20.073 4.659-0.81c-0.737-2.669-1.262-5.38-1.625-8.114l-26.088-18.371c-1.836 2.383-3.652 4.797-5.451 7.222z"/>
 <path d="m605.41 1088.9c-0.049-2.874 0.025-5.752 0.209-8.613 0.022-0.344 0.028-0.689 0.046-1.034l-16.438-11.575c-1.694 2.063-3.389 4.171-5.053 6.267l21.236 14.955z"/>
 <path d="m544.86 1131.6l54.383 38.297 30.753-5.324c-0.648-2.23-1.284-4.465-1.924-6.697l-27.908 4.809-1.47 0.336-51.145-36.016c-0.908 1.52-1.801 3.066-2.689 4.595z"/>
 <path d="m558.31 1109.7l45.768 32.23 17.817-3.098c-0.268-0.681-0.535-1.362-0.817-2.039-1.265-3.111-2.718-6.144-4.207-9.162l-16.541 2.747-1.372 0.131-37.091-26.119c-1.19 1.764-2.393 3.533-3.557 5.31z"/>
 <path d="m319.4 1434.6l-17.264 9.977-0.747 0.448h-40.456c1.248 5.925 2.494 11.849 3.735 17.775 0.149 0.732 0.302 1.464 0.454 2.196l3.673-6.37 0.972-1.682h33.669l12.779-12.742 1.009-1.009h6.816c0.427-2.866 0.863-5.731 1.312-8.595h-5.952z"/>
 <path d="m551.14 1121.1l49.189 34.639 25.804-4.489c-0.594-1.955-1.208-3.904-1.859-5.84l-20.401 3.547-1.375 0.266-47.876-33.714c-1.182 1.862-2.328 3.717-3.482 5.591z"/>
 <path d="m539.62 1140.8l58.049 40.878 35.718-6.245c-0.737-2.157-1.43-4.329-2.093-6.51l-32.188 5.587-0.928 0.215-55.605-39.157c-0.991 1.743-1.986 3.479-2.953 5.232z"/>
 <path d="m220.73 742.32c1.438 0.962 2.857 1.955 4.286 2.932-1.208-2.207-2.401-4.418-3.582-6.633-0.238 1.232-0.475 2.466-0.704 3.701z"/>
 <path d="m212.15 796.27c0.257-0.098 0.519-0.186 0.786-0.262v-5.062c-0.262 1.775-0.528 3.549-0.786 5.324z"/>
 <path d="m206.31 840.74c1.584-3.442 5.053-5.835 9.093-5.835 1.204 0 2.369 0.247 3.438 0.635l15.358-15.359v-58.673c-1.216-2.083-2.418-4.17-3.609-6.262-3.589-2.555-7.195-5.083-10.84-7.544-0.756 4.347-1.464 8.703-2.179 13.058v35.059c4.632 0.891 8.146 4.973 8.146 9.865 0 5.534-4.518 9.977-10.052 9.977-2.244 0-4.296-0.74-5.951-1.978-1.218 9.009-2.362 18.027-3.404 27.057z"/>
 <path d="m211.03 1623.4c-1.449 3.509-0.601 7.609 1.01 11.053 1.709-1.334 3.854-2.136 6.186-2.136 5.534 0 10.015 4.48 10.015 10.015 0 1.364-0.271 2.641-0.763 3.808 3.006 0.636 6.293-0.724 9.155 0.749 2.769 1.223 5.512 3.669 8.77 2.743 2.343-0.997 3.821-3.118 5.435-5.006l-31.296-31.321c-3.104 3.147-6.167 6.336-8.512 10.095z"/>
 <path d="m293.91 1471c4.15 0 7.805 2.499 9.342 6.091l18.786-18.786c0.157-1.945 0.361-3.887 0.665-5.822 0.109-0.791 0.226-1.58 0.337-2.371h-2.904l-12.928 12.742-0.972 0.972h-32.51l-6.479 11.195c1.704 7.942 3.345 15.91 4.367 23.943l0.239-0.238 0.972-1.009h51.318c-0.702-5.212-1.255-10.444-1.718-15.682-0.341-4.569-0.627-9.159-0.691-13.746l-19.975 19.975c-0.603 0.587-1.401 0.934-2.242 0.972-1.599 1.056-3.552 1.756-5.605 1.756-5.535 0-9.977-4.481-9.977-10.014-2e-3 -5.535 4.44-9.978 9.975-9.978z"/>
 <path d="m254.15 1649.4c0.654 0.213 1.315 0.404 1.981 0.577l-3.916-3.919c0.176 1.402 0.499 2.752 1.935 3.342z"/>
 <path d="m277.19 1587.5l-1.009-0.972-16.2-16.211c-0.359 0.425-0.717 0.851-1.072 1.276-10.252 11.852-21.671 22.613-32.204 34.207-0.464 1.121-1.13 2.14-1.939 3.035l42.302 42.373c0.937-0.011 1.873-0.039 2.804-0.099 6.045-0.332 11.373-3.547 16.344-6.726 0.486-0.327 0.97-0.66 1.454-0.993-0.3-0.952-0.463-1.965-0.463-3.016 0-5.534 4.48-10.052 10.014-10.052 1.445 0 2.791 0.309 4.018 0.865 3.061-4.844 3.553-10.888 4.361-16.452 0.157-2.026 1.319-3.73 2.568-5.232 4.726-0.865 10.019-0.244 14.055-3.345 0.606-0.448 1.171-0.941 1.716-1.455l-17.339-17.204h-29.41z"/>
 <path d="m241.07 763.45c1.93 3.244 3.927 6.502 5.919 9.724l3.296-3.296c-2.778-2.169-5.577-4.305-8.392-6.417l-0.823-0.011z"/>
 <path d="m106.95 848.1c-0.762-0.794-1.479-1.632-2.149-2.507 0.015 0.226 0.034 0.451 0.034 0.681 0 5.534-4.406 9.977-9.94 9.977s-10.052-4.443-10.052-9.977c0-2.167 0.736-4.153 1.906-5.792l-12.968-12.968-0.971-1.009v-58.517l-12.07-12.07-1.009-1.046v-78.696c-1.794-0.442-3.58-0.848-5.381-1.27v83.478l7.025 6.988 1.345 1.345v31.276c1.809 1.809 2.915 4.37 2.915 7.137 0 5.534-4.443 9.94-9.977 9.94s-10.089-4.406-10.089-9.94c0-4.819 3.415-8.871 7.959-9.828v-24.699l-7.025-7.063-1.308-1.383v-80.782c-2.096 14.046-3.318 28.226-4.843 42.343-0.841 8.786-2.801 17.345-5.06 25.841v69.615l17.525 17.525c0.896-0.264 1.858-0.448 2.84-0.448 5.534 0 9.977 4.48 9.977 10.015 0 5.534-4.443 9.977-9.977 9.977s-10.089-4.443-10.089-9.977c0-2.041 0.634-3.947 1.682-5.531l-17.824-17.674-0.394-0.409c0.317 1.491 0.648 2.978 1.004 4.455 2.58 11.167 5.203 22.33 8.004 33.447h32.041l0.972 1.009 8.296 8.295v32.36l12.263 12.294c6.119-0.395 12.241-0.77 18.351-1.328 1.738-0.314 3.8-0.402 5.031-1.852 0.804-2.289-0.332-4.691-0.087-7.032 5.599-0.681 11.207 0.996 16.789 0.271 1.77-1.373 1.847-3.634 1.415-5.762h-25.997l-0.635-0.673-5.53-5.53c-1.639 1.167-3.627 1.906-5.792 1.906-5.534 0-10.014-4.592-10.014-10.127 0-5.534 4.481-9.94 10.014-9.94 5.534 0 9.977 4.406 9.977 9.94 0 1.724-0.43 3.404-1.196 4.821l5.007 5.045h22.159c-2.723-3.003-7.595-3.141-11.052-5.141-3.424-2.035-6.77-4.394-9.355-7.434 9.425 3.905 19.209 8.482 29.682 7.338 3.314-0.907 4.115-4.657 4.091-7.746l-8.125-8.138c-10.636-7.293-20.5-15.692-29.395-25.03z"/>
 <path d="m139.81 852.96v-24c-3.314-5.601-6.942-11.017-10.762-16.289v39.639c0.896 1.909 1.852 3.784 3.128 5.477 2.184 2.586 5.695 3.171 8.613 4.56 1.555 0.577 3.153 1.616 4.883 1.171 0.953-0.488 1.823-1.344 2.271-2.342l-7.498-7.467-0.635-0.749z"/>
 <path d="m85.663 761.59c4.56-14.535 9.382-29.167 16.964-42.453 3.277-5.861 6.656-11.661 10.093-17.426v-9.172c-7.856-2.921-15.831-5.666-23.841-8.184-1.406 0.763-2.997 1.196-4.708 1.196-3.786 0-7.047-2.118-8.744-5.231-2.926-0.827-5.874-1.618-8.819-2.391v74.174l12.07 12.033 0.972 1.009v58.518l12.891 12.891c0.759-0.182 1.537-0.299 2.354-0.299 2.174 0 4.168 0.699 5.795 1.874-0.104-0.285-0.214-0.567-0.308-0.855-0.315-1.127-0.568-2.944 0.9-3.346 3.966-0.996 8.141-0.673 12.142-0.061 1.616 2.192 4.027 3.529 5.687 5.687 1.568 1.816 3.635 3.146 5.343 4.819v-37.706c-4.054-4.764-8.877-8.828-14.188-12.125l-6.327 6.327c0.588 1.276 0.897 2.763 0.897 4.26 0 5.534-4.406 9.94-9.94 9.94s-10.052-4.406-10.052-9.94 4.518-10.014 10.052-10.014c2.367 0 4.488 0.832 6.203 2.205l5.104-5.104c-3.344-1.76-6.835-3.241-10.416-4.417-3.905-1.372-8.089-0.716-12.116-1.214-1.668-0.166-3.284-1.546-2.839-3.354 0.533-7.403 2.831-14.539 4.831-21.641z"/>
 <path d="m144.37 838.68v12.45l1.501 1.501c-0.48-1.545-0.824-3.122-0.809-4.775-0.038-3.042-0.057-6.188-0.692-9.176z"/>
 <path d="m147.94 395.18c-1.654 5.152-3.083 10.375-3.847 15.74-1.869 12.483-1.861 25.14-2.594 37.719-0.428 8.185-0.987 16.518-3.843 24.275-3.651 10.971-10.849 20.239-15.461 30.774-7.538 16.911-10.937 35.456-19.785 51.817-3.695 6.656-7.923 12.989-12.046 19.383-10.238 15.688-20.397 31.499-28.442 48.454-6.123 12.684-10.491 26.162-13.426 39.929-0.341 1.54-0.659 3.084-0.968 4.629 24.782 5.439 48.965 12.773 72.43 21.86 11.235-18.322 22.871-36.404 33.788-54.913 4.272-6.578 2.717-14.693 4.263-21.995 1.578-8.276 3.237-16.595 5.64-24.682-15.836-64.34-21.134-129.62-15.709-192.99z"/>
 <path d="m216.28 492.98c1.93-7.608 1.642-15.531 2.909-23.236 1.555 2.987 2.315 6.298 3.319 9.495 2.119 7.429 4.118 14.889 6.067 22.363 2.134 2.452 2.889 5.691 2.249 8.697 3.579 13.98 7.06 27.987 10.807 41.924l10.148-0.04 20.795-20.795 1.4-0.026 79.031 0.026c0.489-1.151 1.253-2.204 2.193-3.144 3.913-3.913 10.197-3.966 14.11-0.053s3.966 10.302 0.053 14.215-10.302 3.86-14.215-0.053c-1.194-1.194-1.939-2.643-2.404-4.148l-77.312 0.053-20.821 20.821h-1.427l-9.53 9e-3c0.929 2.408 2.13 4.703 3.341 6.993h18.687l4.148-4.148c-0.611-3.151 0.249-6.538 2.695-8.984 3.913-3.913 10.223-3.887 14.136 0.027 3.913 3.913 3.913 10.196 0 14.11-3.599 3.599-9.232 3.865-13.159 0.846l-5.02 5.02h-18.151c0.512 1.277 0.953 2.583 1.276 3.939 0.168 0.713 0.317 1.43 0.457 2.149 2.45 0.063 4.883 1.032 6.774 2.923 3.913 3.913 3.993 10.223 0.079 14.136-1.472 1.472-3.295 2.39-5.204 2.754 0.053 4.264-0.038 8.541-0.404 12.79l24.316-24.316 1.427 0.053 18.998-0.026c0.224-2.213 1.128-4.351 2.827-6.051 3.913-3.913 10.196-3.913 14.11 0 3.913 3.913 3.992 10.276 0.079 14.189s-10.302 3.861-14.215-0.053c-0.384-0.383-0.696-0.737-1.004-1.163l-19.394-0.053-28.966 28.966c-0.011 0.043-0.018 0.087-0.028 0.13-1.38 6.219-3.468 12.247-5.232 18.361-0.547 2.906-1.06 5.819-1.568 8.734l26.915-26.915c0.15-0.119 0.309-0.225 0.476-0.317-2.788-3.909-2.427-9.357 1.083-12.868 3.913-3.913 10.144-3.913 14.057 0s4.046 10.276 0.132 14.189c-2.711 2.71-6.632 3.463-10.067 2.404-0.149 0.545-0.431 1.044-0.819 1.453l-33.858 33.858c-0.295 1.622-0.589 3.244-0.902 4.863-1.019 5.197-1.991 10.423-3.09 15.619l93.759-93.759v-17.651c-1.355-0.489-2.669-1.295-3.752-2.378-3.913-3.913-3.86-10.197 0.053-14.11s10.223-3.992 14.136-0.079 3.966 10.355 0.053 14.268c-1.061 1.061-2.322 1.792-3.646 2.272l-0.053 19.13 0.027 1.401-102.32 102.32h-0.97c-1.332 4.928-2.897 9.788-4.863 14.523-0.567 1.375-1.133 2.752-1.694 4.131h6.946l62.463-62.463c-0.987-3.389-0.194-7.152 2.484-9.829 3.913-3.913 10.25-3.913 14.163 0s3.887 10.223-0.026 14.136c-3.407 3.407-8.618 3.875-12.498 1.347l-63.732 63.732-1.4-0.026h-11.095c-1.39 3.748-2.63 7.547-3.585 11.431 0.779 1.483 1.552 2.968 2.34 4.449h19.711l80.299-80.299v-36.305c0.011-0.842 0.33-1.651 0.898-2.272 0.384-1.877 1.27-3.754 2.722-5.205 3.914-3.914 10.223-3.887 14.136 0.026s3.914 10.196 0 14.11c-2.935 2.935-7.286 3.752-10.913 2.299v30.28l-84.209 84.209h-18.92c1.698 3.102 3.394 6.201 5.122 9.289 2.325 1.66 4.641 3.334 6.942 5.032h0.407l97.794-97.794 0.132-18.152v-1.374l22.988-22.988-4.307-16.145c-0.51-0.351-0.972-0.708-1.427-1.163-3.913-3.913-3.913-10.249 0-14.163 3.914-3.913 10.25-3.913 14.163 0s3.887 10.223-0.027 14.136c-1.481 1.482-3.295 2.468-5.205 2.827l3.937 14.665 0.502 1.876-23.807 23.808-0.026 18.046v1.427l-99.319 99.319c2.299 1.744 4.577 3.52 6.852 5.303l97.006-97.006 5.153-19.263 0.211-0.845 28.616-28.616v-49.093c-0.087-0.087-0.202-0.097-0.29-0.185-3.913-3.913-3.887-10.276 0.027-14.189 3.913-3.913 10.197-3.86 14.11 0.053s3.94 10.17 0.026 14.083c-1.931 1.931-4.477 2.961-7.002 2.986v47.772l0.026 1.4-29.382 29.382-5.099 19.051-0.185 0.925-97.826 97.826c0.781 0.628 1.558 1.26 2.336 1.892l129.16-129.16 1.4 0.026 17.307-0.079c0.489-1.239 1.269-2.431 2.272-3.435 3.913-3.913 10.249-3.913 14.163 0 3.913 3.913 3.887 10.223-0.026 14.136s-10.223 3.94-14.136 0.026c-1.128-1.127-1.927-2.472-2.404-3.884h-15.642l-126.75 126.75c2.111 1.76 4.219 3.525 6.307 5.319l79.336-79.336c0.239-0.239 0.495-0.459 0.767-0.66 0.063-2.473 0.962-4.926 2.853-6.817 3.913-3.913 10.249-3.913 14.163 0 3.913 3.913 3.887 10.223-0.026 14.136-2.163 2.163-5.08 3.055-7.9 2.827-0.06 0.063-0.122 0.125-0.185 0.185l-78.731 78.731c2.442 2.203 4.872 4.422 7.28 6.672l95.265-95.265v-20.611c-0.747-0.427-1.503-0.869-2.14-1.506-3.913-3.913-3.834-10.276 0.079-14.189s10.196-3.914 14.11 0 3.94 10.223 0.026 14.136c-0.868 0.868-1.902 1.574-2.959 2.061l0.026 22.01-0.026 1.929-97.741 97.741c2.444 2.358 4.865 4.745 7.272 7.15l138.92-138.92-0.026-35.434-0.026-2.774 20.636-20.636h2.801l31.866 0.052 1.008-1.008c-35.47-96.978-46.856-198.01-34.587-293.39-4.103-0.887-7.913-2.79-11.475-4.965-1.156-0.705-2.295-1.436-3.427-2.176l-0.023 14.688c0.449 0.317 0.867 0.656 1.268 1.057 3.913 3.913 3.887 10.275-0.026 14.189-3.913 3.913-10.249 3.913-14.163 0-3.913-3.914-3.887-10.223 0.026-14.136 1.686-1.686 3.847-2.583 6.051-2.827l-0.026-16.884 0.016-0.856c-3.389-2.482-6.694-5.078-9.953-7.721-4.263-3.547-8.657-7.049-12.037-11.504-1.009-1.306-1.79-2.808-2.222-4.402l-5.686 5.686-0.026 8.165c3.539-1.243 7.637-0.449 10.464 2.378 3.913 3.913 3.94 10.223 0.026 14.136-3.913 3.913-10.276 3.939-14.189 0.026-3.599-3.598-3.832-9.252-0.819-13.185l-0.027-12.445 0.053-1.004 9.898-9.898c0.251-6.568 1.253-13.104 2.911-19.453 0.035-0.119 0.072-0.24 0.107-0.36-3.929 3.488-9.863 3.383-13.63-0.384-0.403-0.403-0.736-0.874-1.057-1.321l-12.841-0.053-1.876 0.026-37.546-37.546-24.19 0.01c-0.136 0.881-0.279 1.759-0.432 2.634-0.217 1.115-0.464 2.227-0.728 3.337l21.017-9e-3 1.929 0.026 43.65 43.65c1.003 1.006 1.482 2.422 1.295 3.831 2.12 3.821 1.525 8.727-1.717 11.97-3.913 3.913-10.17 3.939-14.083 0.026s-3.966-10.249-0.053-14.163c0.561-0.561 1.176-1.051 1.823-1.453l-34.746-34.746-22.094 0.02c-0.804 1.845-1.723 3.638-2.818 5.339-0.307 0.476-0.639 0.927-0.983 1.367l23.7 0.01 0.925-0.026 25.683 25.683-0.026 0.925 0.026 37.177 37.758 37.758 11.041-0.054 0.978 0.026 18.443 18.443-0.026 0.925 0.026 10.807-0.026 1.03-20.926 20.926-0.978-0.026h-20.556c0.052 2.625-0.899 5.285-2.906 7.293-3.913 3.913-10.249 3.861-14.163-0.053-3.913-3.913-3.887-10.17 0.026-14.083s10.196-3.966 14.11-0.053c0.687 0.687 1.245 1.516 1.691 2.325l20.901-0.026 18.205-18.205 0.079-8.904-15.854-15.854h-11.097l-0.951-0.053-40.321-40.321 0.026-0.872-0.026-37.229-23.015-23.015-27.342 0.012c-2.366 1.967-4.883 3.791-7.055 5.963l32.362-0.029 0.951 0.053 18.468 18.469v40.004l49.304 49.304c3.748-1.884 8.361-1.31 11.494 1.823 3.913 3.913 3.913 10.249 0 14.163-3.913 3.913-10.249 3.913-14.163 0-3.564-3.564-3.8-9.106-0.872-13.026l-50.387-50.389-0.026-0.925 0.053-39.052-15.828-15.828-35.839-0.033c-1.308 1.324-2.617 2.648-3.924 3.973l38.099 0.05 0.951-0.053 12.472 12.472-0.079 0.925 0.027 17.201 0.053 0.951-13.687 13.687v11.203l20.689 20.689-0.053 0.899 0.026 19.103c2.088 0.286 4.098 1.139 5.707 2.748 3.913 3.913 3.913 10.249 0 14.163-3.913 3.913-10.275 3.94-14.189 0.026-3.913-3.913-3.86-10.249 0.053-14.163 1.112-1.111 2.442-1.819 3.831-2.299v-18.602l-20.636-20.636-0.053-0.951 0.053-13.159v-0.951l13.66-13.66v-15.324l-9.75-9.75h-41.687c-4.431 4.495-8.867 8.984-13.31 13.467l36.844-0.071c0.475-0.978 1.115-1.908 1.929-2.722 3.913-3.913 10.223-3.94 14.136-0.026 3.913 3.913 3.966 10.302 0.053 14.215s-10.302 3.86-14.215-0.053c-1.892-1.892-2.844-4.344-2.907-6.817h-40.338c-0.972 0.976-1.94 1.957-2.913 2.932l31.996-0.025 0.951 0.053 14.875 14.875 0.053 0.951v27.902l1.453 1.453c3.885-2.568 9.127-2.182 12.551 1.242 3.914 3.913 3.914 10.249 0 14.163-3.913 3.913-10.223 3.887-14.136-0.026-3.281-3.281-3.78-8.195-1.559-12.022l-2.933-2.933 0.026-1.03v-27.743l-12.286-12.286h-33.821l-0.951-0.053-0.384-0.384c-0.645 0.641-1.292 1.28-1.938 1.92l15.214 15.214h7.874c0.394-1.81 1.232-3.558 2.642-4.967 3.913-3.913 10.17-3.887 14.083 0.026s4.019 10.249 0.106 14.163c-3.913 3.913-10.329 3.887-14.242-0.026-1.318-1.318-2.106-2.917-2.537-4.598h-9.829l-16.576-16.576c-0.896 0.883-1.782 1.775-2.68 2.656-0.7 0.674-1.398 1.351-2.094 2.029l107.36 107.36v2.431l0.027 55.514 9.724 9.724 50.943-0.052 17.312-17.312c0.584 1.384 1.276 2.729 2.088 4.02 1.285 2.042 2.731 4.009 4.329 5.844l-18.934 18.934-2.299 0.026-55.779-0.026-2.352 0.026-16.462-16.462v-2.378l0.054-55.488-104.22-104.22c-2.392 2.249-4.828 4.449-7.365 6.534-0.436 0.34-0.888 0.603-1.35 0.816l93.722 93.722 0.053 1.902-0.026 36.436c2.883 3.917 2.596 9.453-0.951 13-3.913 3.913-10.223 3.887-14.136-0.026s-3.939-10.223-0.026-14.136c1.66-1.66 3.76-2.549 5.919-2.801v-30.598l-97.554-97.554c-1.37 0.089-2.747 0.189-4.127 0.312l49.642 49.642-0.026 0.925-0.052 20.768c1.377 0.481 2.703 1.223 3.805 2.325 3.913 3.913 3.913 10.249 0 14.163-3.913 3.913-10.249 3.913-14.163 0-3.913-3.913-3.887-10.223 0.026-14.136 1.634-1.634 3.664-2.505 5.787-2.774l0.026-19.421-50.815-50.815c-6.207 0.935-12.265 2.628-17.611 6.043-0.265 0.164-0.526 0.334-0.79 0.499l36.029 36.029c3.843-2.3 8.84-1.835 12.154 1.48 3.913 3.913 3.966 10.302 0.053 14.216-3.913 3.913-10.276 3.834-14.189-0.079-3.386-3.386-3.794-8.548-1.321-12.419l-36.668-36.668c-4.366 2.938-8.585 6.119-12.62 9.523l84.139 84.139 21.984-0.052c0.395-0.622 0.83-1.2 1.374-1.744 3.913-3.913 10.223-3.94 14.136-0.026 3.913 3.913 3.913 10.249 0 14.163-3.913 3.913-10.223 3.887-14.136-0.026-2.149-2.149-3.091-4.992-2.88-7.795l-21.481 0.08-0.925-0.079-85.654-85.654c-3.116 2.804-6.11 5.744-8.958 8.816l0.599-1e-3 2.854 0.053 37.573 37.573c3.308-0.847 6.943-0.032 9.539 2.563 3.913 3.913 3.966 10.302 0.053 14.215s-10.302 3.86-14.215-0.053c-1.277-1.277-2.04-2.817-2.484-4.439l-36.12-36.12h-8.944c-3.247 4.634-6.178 9.484-8.743 14.53l13.91-0.024 0.978 0.079 41.034 41.034h29.698c3.917-2.883 9.4-2.596 12.947 0.951 3.913 3.913 3.94 10.223 0.026 14.136-3.913 3.913-10.249 3.913-14.163 0-2.852-2.852-3.578-6.971-2.272-10.516h-27.216l-0.872 0.026-41.087-41.087h-15.008c-0.473 4.043-0.938 8.094-1.321 12.155h17.122l1.4-0.027 37.282 37.282 21.27 0.027 1.4-0.026 17.703 17.703 17.678 0.026c0.026 8e-3 0.052 0.017 0.079 0.026 0.395-0.622 0.883-1.253 1.427-1.797 3.914-3.914 10.25-3.966 14.163-0.053s3.887 10.276-0.026 14.189-10.249 3.913-14.163 0c-1.557-1.558-2.457-3.453-2.774-5.47l-17.782-0.026h-1.427l-17.729-17.729-21.191 0.052-1.48-0.106-37.256-37.256-16.303 0.026c-0.294 3.582-0.542 7.161-0.766 10.754h16.541l64.102 64.102 64.498 0.026c0.202-0.24 0.355-0.46 0.582-0.687 3.913-3.913 10.276-3.992 14.189-0.079 3.914 3.913 3.861 10.302-0.053 14.215-3.913 3.913-10.249 3.913-14.163 0-1.827-1.826-2.68-4.167-2.801-6.553l-63.679-0.053-1.4 0.026-64.128-64.128h-14.11c-0.182 3.624-0.311 7.252-0.423 10.886l17.835-0.026h1.427l22.063 22.063-0.502 1.982-5.549 20.451 0.211 0.211c3.932-3.553 9.923-3.447 13.713 0.344 3.913 3.913 3.887 10.223-0.027 14.136-3.913 3.913-10.196 3.913-14.11 0-2.189-2.189-3.086-5.154-2.827-8.006l-4.598-4.598 0.502-1.876 5.496-20.61-17.228-17.228h-16.594c-0.105 5.697-0.143 11.431-0.078 17.148h4.016c-0.079-2.657 0.847-5.339 2.88-7.372 3.914-3.914 10.275-3.887 14.189 0.026 3.913 3.913 3.914 10.249 0 14.163-3.878 3.878-10.163 3.839-14.083 0.026h-6.87c0.655 28.199 3.38 56.6 8.165 84.949l2.933-2.933v-22.406c-1.332-0.485-2.655-1.229-3.725-2.299-3.913-3.913-3.86-10.249 0.053-14.163 3.914-3.914 10.223-3.939 14.136-0.026s3.94 10.275 0.026 14.189c-1.045 1.045-2.35 1.786-3.646 2.272l0.026 23.86 0.027 1.4-8.35 8.35c0.684 3.736 1.412 7.471 2.167 11.203l21.191-21.191c-1.031-3.413-0.246-7.206 2.457-9.908 2.874-2.874 7.096-3.643 10.687-2.303 4.394-7.028 8.756-14.076 12.985-21.203 2.459-4.365 5.307-8.654 6.46-13.607zm248.31 91.484c3.913-3.913 10.276-3.887 14.189 0.026 3.914 3.913 3.86 10.196-0.053 14.11-3.913 3.913-10.17 3.94-14.083 0.026-3.913-3.912-3.966-10.249-0.053-14.162zm-41.961-156.64c-3.913 3.913-10.223 3.887-14.136-0.026-3.914-3.913-3.966-10.249-0.053-14.163 3.913-3.913 10.276-3.887 14.189 0.026s3.913 10.25 0 14.163zm27.773-26.606c-3.913 3.913-10.249 3.913-14.163 0-3.913-3.913-3.913-10.249 0-14.163 3.913-3.913 10.25-3.913 14.163 0 3.913 3.914 3.913 10.25 0 14.163zm-14.797 154.26c3.913-3.913 10.249-3.913 14.163 0s3.966 10.302 0.053 14.215-10.276 3.834-14.189-0.079c-3.915-3.913-3.941-10.223-0.027-14.136zm-27.507-27.93c3.913-3.913 10.223-3.939 14.136-0.026 3.914 3.914 3.913 10.249 0 14.163-3.913 3.913-10.249 3.914-14.163 0-3.913-3.914-3.886-10.224 0.027-14.137zm-29.382-28.959c3.913-3.913 10.302-3.86 14.215 0.053 3.914 3.913 3.913 10.249 0 14.163-3.913 3.913-10.223 3.887-14.136-0.026-3.913-3.914-3.992-10.277-0.079-14.19z"/>
 <path d="m166.52 579.65c0.504-1.316 1.031-2.625 1.593-3.921 3.014-6.368 6.752-12.36 10.36-18.405 1.241-2.048 2.491-4.091 3.747-6.13l-18.06 18.06c0.749 3.466 1.545 6.932 2.36 10.396z"/>
</svg>
